<svg height="2500" preserveAspectRatio="xMinYMin meet" viewBox="0 0 256 270" width="2370" xmlns="http://www.w3.org/2000/svg"><path d="m127.606.341-126.757 44.609 20.031 166.072 106.86 58.732 107.412-59.528 20.023-166.066z" fill="#b3b3b3"/><path d="m242.532 53.758-115.222-39.292v241.256l96.561-53.441 18.66-148.523z" fill="#a6120d"/><path d="m15.073 54.466 17.165 148.525 95.07 52.731v-241.26l-112.234 40.003z" fill="#dd1b16"/><path d="m159.027 142.898-31.717 14.832h-33.429l-15.714 39.305-29.228.54 78.371-174.348 31.717 119.672zm-3.066-7.467-28.44-56.303-23.329 55.334h23.117l28.652.97z" fill="#f2f2f2"/><path d="m127.309 23.226.21 55.902 26.47 55.377h-26.62l-.06 23.189 36.81.035 17.204 39.852 27.967.518z" fill="#b3b3b3"/></svg>