<svg enable-background="new 0 0 297.45 419.877" height="419.877" viewBox="0 0 297.45 419.877" width="297.45" xmlns="http://www.w3.org/2000/svg"><path d="m27.07 386.156-27.07-303.62h297.45l-27.098 303.571-121.809 33.77z" fill="#fc3"/><path d="m148.725 394.064 98.428-27.287 23.158-259.416h-121.586z" fill="#f8dc3d"/><path d="m148.93 209.97v37.237l45.853 10-4.322 48.293-41.531 11.211v38.742l76.34-21.158.558-6.291 9.658-98.034z" fill="#fff"/><path d="m224.926 142.736-76.34-21.158v38.742l76.381 21.518z" fill="#fff"/><path d="m149.059 209.97-48.256 10 6.275-48.465 41.473-11.199.164.046v-38.744l-.172-.048-76.279 21.176-9.84 77.234h-.018l.006.079-.006.055h.012l3.309 37.103h.181l6.699 77.088 76.28 21.176.172-.049v-38.744l-.164.047-41.473-11.2-4.145-48.318 45.782-10z" fill="#ebebeb"/><g fill="#131313"><path d="m201.42 15.547h-24.688l25.674 27.859v13.26h-52.883v-15.525h25.67l-25.67-27.86v-13.281h51.897z"/><path d="m138.914 16.178v-16.178h-45.572v56.666h45.572v-16.175h-26.639v-5.652h25.639v-13.011h-25.639v-5.65z"/></g></svg>