<svg height="649" preserveAspectRatio="xMidYMid" viewBox="0 0 512 133" width="2500" xmlns="http://www.w3.org/2000/svg" xmlns:xlink="http://www.w3.org/1999/xlink"><linearGradient id="a" x1="-.04%" x2="99.947%" y1="49.481%" y2="49.481%"><stop offset="0" stop-color="#6c91b0"/><stop offset=".5" stop-color="#193a62"/><stop offset="1" stop-color="#6c91b0"/></linearGradient><linearGradient id="b" x1="0%" x2="100.073%" y1="49.796%" y2="49.796%"><stop offset="0" stop-color="#92bcda"/><stop offset=".1533" stop-color="#739ec2"/><stop offset=".4872" stop-color="#245184"/><stop offset=".5" stop-color="#214e82"/><stop offset=".5128" stop-color="#245184"/><stop offset=".8467" stop-color="#739ec2"/><stop offset="1" stop-color="#92bcda"/></linearGradient><linearGradient id="c"><stop offset="0" stop-color="#5992ca"/><stop offset="1" stop-color="#b2d4eb"/></linearGradient><linearGradient id="d" x1=".062%" x2="100.149%" xlink:href="#c" y1="50.237%" y2="50.237%"/><linearGradient id="e" x1="100.027%" x2="-.067%" xlink:href="#c" y1="50.237%" y2="50.237%"/><path d="m154.698 100.502v-24.153c0-5.29-.699-8.783-1.996-10.68-1.298-1.896-3.394-2.794-5.989-2.794-1.996 0-3.792.5-5.389 1.697-1.597 1.198-2.795 2.695-3.593 4.79-.798 1.997-1.297 5.19-1.297 9.682v21.458h-11.777v-23.055c0-4.192-.3-7.086-.899-8.983-.599-1.896-1.597-3.293-2.794-4.191-1.198-.899-2.595-1.298-4.392-1.298-1.996 0-3.892.5-5.489 1.697s-2.795 2.794-3.593 4.89-1.198 5.59-1.198 10.08v20.86h-11.577v-47.208h11.777v5.39c1.996-2.196 4.192-3.693 6.687-4.791s5.09-1.597 8.084-1.597c2.895 0 5.59.699 7.885 2.196 2.395 1.397 4.291 3.692 5.788 6.487 1.897-2.795 4.092-4.99 6.787-6.487a19.587 19.587 0 0 1 8.983-2.196c3.293 0 6.188.798 8.683 2.295 2.495 1.597 4.391 3.593 5.489 6.089 1.098 2.495 1.697 6.387 1.697 11.976v27.846zm62.977-11.278c-2.196 3.892-5.19 6.886-8.983 8.982-3.792 2.196-7.984 3.294-12.575 3.294-6.687 0-12.476-2.396-17.167-7.186-4.79-4.79-7.086-10.58-7.086-17.466 0-7.286 2.695-13.374 8.085-18.264 4.69-4.292 10.08-6.388 16.268-6.388 4.391 0 8.583 1.098 12.475 3.294 3.893 2.195 6.887 5.19 9.083 8.982 2.195 3.793 3.293 7.885 3.293 12.276-.1 4.491-1.197 8.583-3.393 12.476zm-12.077-22.157c-2.395-2.495-5.489-3.793-9.182-3.793-3.692 0-6.687 1.298-9.082 3.793s-3.693 5.789-3.693 9.781c0 4.092 1.198 7.386 3.593 9.88 2.396 2.496 5.49 3.793 9.083 3.793 3.692 0 6.786-1.297 9.182-3.792 2.395-2.595 3.692-5.889 3.692-9.881s-1.197-7.286-3.593-9.78zm51.4 33.435v-20.86c0-5.589-.3-9.082-.798-10.978-.5-1.797-1.398-3.194-2.595-4.192-1.198-.998-2.795-1.497-4.691-1.497-2.395 0-4.392.798-6.088 2.395-1.697 1.597-2.895 3.793-3.593 6.588-.3 1.497-.5 4.89-.5 9.78v18.764h-11.776v-47.208h11.777v4.79c2.694-2.295 5.09-3.692 7.285-4.59 2.196-.899 4.392-1.298 6.687-1.298 4.691 0 8.584 1.597 11.777 4.79 2.695 2.795 4.292 6.887 4.292 12.277v31.04h-11.777zm61.08 10.58c-4.29 5.09-10.579 7.684-19.262 7.684-4.59 0-8.583-.599-11.677-1.796-3.094-1.198-5.789-2.795-7.884-5.09-2.196-2.196-3.993-4.99-4.99-8.184h13.373c1.198 1.297 2.396 2.395 4.292 2.994 1.796.698 3.992.998 6.387.998 3.194 0 5.69-.5 7.586-1.497 1.896-.998 3.293-2.196 4.092-3.793.798-1.597 1.197-4.092 1.197-7.885-2.096 2.096-4.291 3.394-6.587 4.292-2.295.898-4.79 1.497-7.685 1.497-6.288 0-11.577-2.395-15.969-6.986-4.291-4.491-6.287-10.18-6.287-17.067 0-7.385 1.996-13.474 6.587-18.065 4.191-4.092 8.982-6.088 14.77-6.088 2.696 0 5.39.5 7.786 1.497 2.395.998 4.79 2.695 7.285 4.99v-5.389h11.777v40.222c.1 7.984-1.596 13.872-4.79 17.665zm-9.98-44.215c-2.395-2.395-5.589-3.892-9.282-3.892-3.692 0-6.687 1.497-9.082 3.992s-3.792 5.69-3.792 9.482c0 3.892 1.397 6.986 3.892 9.481s5.589 3.793 9.282 3.793 6.687-1.198 8.982-3.693c2.396-2.395 3.593-5.689 3.593-9.581 0-3.992-1.197-7.086-3.593-9.582zm66.67 22.357c-2.196 3.892-5.19 6.886-8.982 8.982-3.793 2.196-7.985 3.294-12.576 3.294-6.687 0-12.475-2.396-17.166-7.186-4.791-4.79-7.086-10.58-7.086-17.466 0-7.286 2.694-13.374 8.084-18.264 4.69-4.292 10.08-6.388 16.268-6.388 4.391 0 8.583 1.098 12.476 3.294 3.892 2.195 6.886 5.19 9.082 8.982 2.196 3.793 3.293 7.885 3.293 12.276-.1 4.491-1.197 8.583-3.393 12.476zm-12.176-22.157c-2.396-2.495-5.49-3.793-9.182-3.793-3.693 0-6.687 1.298-9.083 3.793-2.395 2.495-3.692 5.789-3.692 9.781 0 4.092 1.197 7.386 3.593 9.88 2.395 2.496 5.489 3.793 9.082 3.793 3.693 0 6.787-1.297 9.182-3.792 2.395-2.595 3.693-5.889 3.693-9.881s-1.198-7.286-3.593-9.78z" fill="#24292c"/><path d="m399.52 101.6c-6.787 0-14.971-2.396-14.971-16.568v-53.695h11.777v51.5c0 5.389 2.196 6.986 5.39 6.986h1.596v10.679s-1.696 1.098-3.792 1.098zm42.916-1.098v-5.39c-2.296 2.196-4.591 3.992-6.887 4.89-2.295.999-4.89 1.498-7.585 1.498-6.088 0-11.278-2.396-15.67-7.086-4.39-4.691-6.886-10.58-6.886-17.566 0-7.186 2.396-13.075 6.587-17.765 4.292-4.591 9.482-6.887 15.57-6.887 2.794 0 5.49.5 7.885 1.597 2.495 1.098 4.79 2.695 6.886 4.89v-5.389h11.777v47.108h-11.677zm-3.194-33.635c-2.395-2.495-5.49-3.792-9.182-3.792-3.593 0-6.687 1.297-9.082 3.892-2.396 2.595-3.793 5.989-3.793 9.98 0 4.093 1.397 7.287 3.793 9.881 2.495 2.595 5.49 3.893 9.082 3.893 3.693 0 6.787-1.298 9.182-3.893 2.395-2.594 3.693-5.888 3.693-10.08 0-3.992-1.198-7.385-3.693-9.88zm65.173 27.547c-4.392 4.69-9.88 7.086-15.87 7.086-2.694 0-4.99-.5-7.385-1.497-2.295-.998-4.79-2.695-7.086-4.89v5.389h-11.777v-64.874h11.777v23.055c2.096-2.095 4.591-3.792 7.086-4.89s5.09-1.597 7.985-1.597c6.088 0 11.278 2.296 15.57 6.887 4.29 4.59 6.387 10.48 6.387 17.765-.1 7.086-2.296 12.875-6.687 17.566zm-8.683-27.447c-2.396-2.595-5.49-3.892-9.082-3.892-3.693 0-6.787 1.297-9.183 3.792-2.395 2.496-3.692 5.79-3.692 9.881 0 4.192 1.197 7.486 3.692 10.08 2.396 2.595 5.49 3.893 9.183 3.893 3.592 0 6.587-1.298 9.082-3.893 2.495-2.594 3.693-5.988 3.693-9.98-.1-3.992-1.298-7.286-3.693-9.88z" fill="#fc9e18"/><path d="m48.705 129.445v-3.693h6.387v3.693c0 1.797-1.397 3.194-3.193 3.194-1.797 0-3.194-1.497-3.194-3.194z" fill="#6086a9"/><path d="m30.94 129.445v-3.693h6.387v3.693c0 1.797-1.397 3.194-3.194 3.194-1.696 0-3.193-1.497-3.193-3.194z" fill="#466e93"/><path d="m13.174 129.445v-3.693h6.388v3.693c0 1.797-1.397 3.194-3.194 3.194-1.697 0-3.194-1.497-3.194-3.194z" fill="#6086a9"/><path d="m61.28 122.76-2.894 4.292h-48.605l-2.695-4.292z" fill="url(#a)" transform="translate(0 -1)"/><path d="m62.678 119.664-2.895 4.292h-51.3l-2.694-4.292z" opacity=".1"/><path d="m1.796 90.82v-56.488c.1-15.57 12.676-28.345 28.744-30.041.899-.2 1.497-.799 1.697-1.198.5-.898.998-1.896 1.298-2.695.2-.499 1.097-.599 1.297 0 .3.799.898 1.797 1.297 2.695.2.4.7.998 1.697 1.198 16.069 1.695 28.544 14.469 28.644 30.039v56.49z" fill="#faac18"/><path d="m50.202 34.43v48.905h.1v.899a4.473 4.473 0 0 0 4.491 4.49h5.789a4.473 4.473 0 0 0 4.49-4.49v-49.105c-.098-15.869-13.172-28.644-27.744-29.841-1.597-.1-2.695-3.294-2.695-3.294s-1.197 4.491 1.797 6.687c8.184 5.988 13.773 15.17 13.773 25.75z" fill="#f7941d"/><path d="m34.133 12.773c13.674 0 24.852 11.078 24.852 24.852 0 13.673-11.079 24.851-24.852 24.851-13.673 0-24.851-11.078-24.851-24.851.1-13.774 11.178-24.852 24.851-24.852z" fill="#fff" opacity=".35"/><path d="m53.895 72.856c-3.893 0-5.09 1.497-5.09 4.391 0 4.89 5.988 10.58 5.988 19.462 0 6.487-3.793 11.877-12.176 11.877h-3.893v-7.885h1.697c3.094 0 4.092-1.796 4.092-4.69 0-6.588-3.593-12.476-3.593-17.466s1.697-7.386 7.585-8.683c-5.988-1.298-7.585-5.19-7.585-10.18 0-4.891 3.593-8.883 3.593-15.47 0-2.895-1.497-5.19-5.09-5.19h-3.493v-6.088c8.982-4.591 16.468 3.593 16.468 9.68 0 8.784-3.693 15.57-3.693 20.46 0 2.795 1.198 3.993 5.09 3.993h2.695v5.789zm-21.558-33.834h-3.094c-3.593 0-5.09 2.295-5.09 5.19 0 6.587 3.593 10.679 3.593 15.47 0 4.99-1.996 8.882-7.985 10.18 5.989 1.297 7.985 3.593 7.985 8.683 0 4.89-3.593 10.878-3.593 17.466 0 2.894.998 4.69 4.092 4.69h1.697v7.885h-3.893c-8.384 0-12.176-5.39-12.176-11.877 0-8.882 5.988-14.571 5.988-19.462 0-2.794-.998-4.391-4.89-4.391h-3.194v-5.889h3.194c3.892 0 4.89-1.197 4.89-3.992 0-4.89-3.693-11.677-3.693-20.46 0-5.988 7.286-14.073 16.169-9.78z" fill="#162331"/><path d="m24.452 6.785c-9.78 5.689-16.368 15.769-16.468 27.345v53.297c0 .698-.499 1.197-1.197 1.197h-1.497a1.321 1.321 0 0 1 -1.298-1.298v-52.496c0-12.775 8.484-23.654 20.46-28.045" fill="#fdecb2"/><path d="m65.672 95.513c-.3.999-.5 2.196-.5 3.194v22.556c0 1.797-1.397 3.194-3.193 3.194h-55.591c-1.797 0-3.194-1.397-3.194-3.194v-22.556-.1c-.1-.998-.2-2.095-.5-3.094-.797-2.295-2.694-3.692-2.694-3.692h68.267s-1.797 1.397-2.595 3.692z" fill="url(#b)" transform="translate(0 -1)"/><path d="m65.073 106.392h-21.059c-1.796 0-3.194-1.397-3.194-3.194 0-1.796 1.398-3.193 3.194-3.193h21.059z" fill="url(#d)" transform="translate(0 -1)"/><path d="m3.194 100.005h21.059c1.796 0 3.193 1.397 3.193 3.193 0 1.797-1.397 3.194-3.193 3.194h-21.06v-6.387z" fill="url(#e)" transform="translate(0 -1)"/></svg>